<?xml version="1.0" encoding="UTF-8"?>
<svg width="138px" height="35px" viewBox="0 0 138 35" version="1.1" xmlns="http://www.w3.org/2000/svg" xmlns:xlink="http://www.w3.org/1999/xlink">
    <g id="test-room-02" stroke="none" stroke-width="1" fill="none" fill-rule="evenodd">
        <g id="website-job-detail" transform="translate(-175.000000, -20.000000)" fill="#2281C2">
            <g id="nav">
                <g id="Group" transform="translate(175.000000, 20.000000)">
                    <path d="M117.405302,34 C117.253958,34 117.139805,34 117.025939,33.9664347 C116.456609,33.6714759 116,33.2458202 116,32.5240177 C116,29.9017653 119.714667,27.4232793 122,27 C121.695594,29.1639226 120.975777,34 117.405302,34 Z M99.8469338,15.6283246 C98.6921294,19.6489901 97.192564,23 95.6533076,23 C95.1923708,23 95,22.3628255 95,21.357735 C95,17.8400701 97.3469821,10 99.9234186,10 C100.769966,10 100.962337,10.6031757 101,11.0384822 C100.577016,12.6130531 100.191985,14.1876241 99.8469338,15.6283246 Z M69.7611643,16.0979335 C68.7934788,19.8168593 67.0904806,23 65.6580495,23 C65.1941785,23 65,22.3634326 65,21.357735 C65,17.8403736 67.3607561,10 69.9544681,10 C70.8842509,10 71,10.7033508 71,11.2728313 L69.7611643,16.0979335 Z M41.8929989,20 C39.786065,19.1923642 39,16.871554 39,14.5504391 C39,11.623445 40.2143386,9 41.6428139,9 C42.6069675,9.06735378 43,10.7493697 43,12.9025573 C43,15.1224891 42.5711884,17.8803369 41.8929989,20 Z M39.8774883,23 C38.5306279,23 38,21.7489486 38,19.7502426 C38,19.2138467 38.040581,18.6425105 38.122358,18 C39.0609484,19.3574895 40.3675352,20.4283403 42,20.821417 C41.3875951,22.1420252 40.6528322,23 39.8774883,23 Z M31.3297983,9 C31.9215026,9 32,9.56926341 32,10.104274 C32,12.7132464 28.6451261,18 26.3151791,18 C26.197433,18 26.1189355,18 26,17.9666566 C26.4730661,13.9518036 29.0789435,9 31.3297983,9 Z M114.890862,1 C114.964537,1.38023983 115,1.85546787 115,2.36226299 C115,6.06823819 112.956345,12.9096854 110,15 C111.131515,9.20399713 113.577084,1.34867275 114.890862,1 Z M136.239575,17.3242842 C136.239575,17.3242842 133.24828,21.3305451 126.480295,24.1153027 L126.826853,22.4376425 C129.316328,10.5546802 129.938843,10.198555 129.938843,9.32437642 C129.938843,8.57927115 129.141437,7.99961446 128.170314,7.9412381 C127.481007,7.89987596 126.630871,8.03804311 126.630871,8.03804311 C126.630871,8.03804311 126.509297,8.61916655 126.437232,8.87115294 C126.437232,8.87115294 125.971151,10.5869485 125.349222,13.015581 C123.637232,18.5525345 122.859454,22.3079824 120.759308,22.3079824 C120.175462,22.3079824 119.942568,21.854759 119.942568,21.077972 C119.942568,19.8145199 120.759308,16.7713222 121.537965,13.9214413 C122.004338,12.1733774 122.721769,10.5185983 122.626267,9.3894998 C122.457236,7.39707657 119.231583,7.76082875 119.231583,7.76082875 C119.231583,7.76082875 119.163912,8.22343939 119.04849,8.87115294 C118.448825,11.6594307 117.317751,14.9384806 116.691721,17.7775077 C115.326582,20.0354114 112.930851,22.5338608 110.880213,22.5338608 C109.790738,22.5338608 109.324364,21.8870273 109.324364,20.4945018 C109.324364,19.4912498 109.518882,18.0338943 109.830286,16.3826354 C114.535622,16.7716156 117.492056,8.38595447 117.492056,3.91737629 C117.492056,1.74835725 116.791909,1.13261868 115.780066,0.647420209 C115.508503,0.323270082 114.92495,0 114.22451,0 C110.685695,0 108.391324,6.83062056 106.951776,13.3068761 C106.58149,14.8921316 106.304068,16.4286912 106.162574,17.8323639 C105.111182,19.6223766 103.505533,22.5778631 102.163829,22.5778631 C101.619238,22.5778631 101.385173,22.0920779 101.385173,21.2176059 C101.385173,17.4624514 106.583833,4.93118882 106.636564,2.82787984 C106.689587,0.708436704 103.554748,0.93284833 103.554748,0.93284833 C103.554748,0.93284833 103.330349,1.45148853 103.252718,1.69438112 C102.669165,3.47500671 101.774794,6.38971771 100.957761,9.43320873 C100.607395,8.65583512 99.98488,7.87904821 98.9355392,7.87904821 C95.1565062,7.87904821 92.1274209,13.1024122 91.2784568,17.6915566 C91.2652741,17.7088642 91.2515055,17.724705 91.2383228,17.7428926 C90.7719492,18.3903128 88.087371,22.6638142 86.376553,22.6638142 C85.9491415,22.6638142 85.7540379,22.4053741 85.7540379,21.984419 C85.7540379,20.00901 89.5269189,14.4081065 89.5269189,10.7491702 C89.5269189,9.55054814 88.9433659,7.80248424 86.6489949,7.80248424 C84.6270658,7.80248424 82.6426341,10.1657 81.0487025,13.2094844 L80.8333855,13.1420142 L81.7793155,9.4293952 C81.7793155,9.4293952 80.7358337,8.70922455 79.8019145,8.70922455 C79.1799853,8.70922455 78.5621574,8.96971805 78.3641243,9.55054814 C77.510473,12.0557446 76.7848401,14.932907 76.1892762,17.738199 C76.1881044,17.7399591 76.1869326,17.7414258 76.1863467,17.7428926 C74.3577635,20.8837753 73.1522813,22.5989842 72.3358344,22.5989842 C71.9854682,22.5989842 71.7915365,22.2754207 71.7915365,21.7902223 C71.7915365,20.2363551 73.1522813,16.7390539 74.202208,12.6268942 C74.2411701,12.4646725 74.2411701,12.3030374 74.2411701,12.141109 C74.2411701,10.9430736 73.0749429,10.2633851 72.1017687,10.2633851 L71.8688748,10.2633851 C71.7915365,9.2595464 70.8180693,7.86760762 69.2628068,7.86760762 C66.860045,7.86760762 64.7613634,9.98001039 63.3326546,12.6972978 C63.2857829,12.7750352 63.239497,12.8580528 63.1949689,12.950751 C62.5340775,14.2136164 60.9389741,16.5768322 59.6561535,16.5768322 C59.0726005,16.5768322 58.7614895,16.3178054 58.7614895,15.8645819 C58.7614895,14.7310832 60.627863,11.7207406 60.627863,9.90696661 C60.627863,8.51502783 60.0835651,7.80248424 58.6446031,7.80248424 C56.7392674,7.80248424 55.0272776,9.61567152 53.6272777,12.109134 L53.4327601,12.0070487 L54.27733,9.36456517 C54.27733,9.36456517 53.2772045,8.74149289 52.3822475,8.74149289 C51.7213561,8.74149289 51.098841,8.99993295 50.9043234,9.55054814 C49.9595651,12.2420209 49.1401887,15.337728 48.5856376,17.9749313 C47.6552339,19.4446074 46.3264204,19.9506336 45.031589,20.0735467 C46.3155813,17.936796 47.0543969,15.3465284 47.0543969,13.1126794 C47.0543969,10.1659934 45.7709905,7.80248424 42.7366321,7.80248424 C41.9201852,7.80248424 41.1626209,7.95737227 40.5591474,8.09436603 C40.5591474,8.09436603 42.0420517,4.01154117 42.1331586,2.96428691 C42.2110828,2.0684005 41.3515725,1.12440492 40.4217547,1.03112009 C39.569861,0.945755666 39.0979213,0.968050154 39.0979213,0.968050154 C39.0979213,0.968050154 38.8231359,1.87684391 38.6916021,2.29867909 C38.1868522,3.85225292 37.7195996,5.56863518 35.6191604,13.7272445 C35.2301251,15.2379895 34.9825838,16.5862193 34.8586666,17.771054 C33.8409643,19.1186972 31.8603409,22.5664225 28.1905776,22.5664225 C25.7787344,22.5664225 25.6234718,20.1061084 25.6234718,18.6816079 C26.1291005,18.8106812 26.6344363,18.8755113 27.1016888,18.8755113 C31.224936,18.8755113 34.0246429,14.5049115 34.0246429,11.3965905 C34.0246429,9.81016159 33.2855343,8.5795645 31.6517617,8.41792946 C31.1850951,8.09436603 30.290431,7.86760762 29.4353149,7.86760762 C25.3513228,7.86760762 22.0058533,14.115638 22.0058533,18.9406346 C22.0058533,18.9969576 22.0099546,19.0518137 22.0108335,19.1078433 C20.7001828,20.633549 18.8818528,22.2364054 17.7601538,22.3018221 C16.4164,22.1968033 16.2895533,18.9687961 14.535086,16.7258532 C17.0913528,16.5263762 19.038873,15.659238 20.4086993,14.4409615 C22.2586677,12.9008817 23.1524529,10.7579707 23.1524529,8.67842296 C23.1524529,4.20192437 19.509348,0.937248558 13.9333702,0.937248558 C13.9319055,0.937248558 13.9304408,0.937248558 13.928976,0.937248558 C13.9278042,0.937248558 13.9269254,0.937248558 13.9257536,0.937248558 C5.37078466,0.937248558 0.244775467,4.81736959 0.0359033355,6.22426914 C-0.133713725,7.36950181 0.325336247,8.21903916 0.831550893,8.78578852 C1.38082894,9.54380113 2.11876568,9.91694046 2.11876568,9.91694046 C2.11876568,9.91694046 2.58953358,9.22170444 2.86842036,8.92776921 C3.80146066,7.94417158 4.96124294,6.84059441 6.43272221,5.86198371 C6.83757675,5.61674433 9.65866878,3.96137857 12.7437072,3.45329891 C13.3419076,3.37937508 14.0742784,3.3171852 14.8368228,3.31513176 C16.0121313,3.36822784 17.1531649,3.67360366 18.144209,4.36795964 C18.4066906,4.58327746 19.6458619,5.67453399 19.7343323,7.19085255 C19.7346252,7.19495943 19.7352111,7.19847962 19.7355041,7.2025865 C19.7448784,7.36011466 19.7498585,7.51705612 19.7498585,7.67311754 C19.7498585,9.3900865 19.2301683,11.0821208 18.274571,12.4954741 C17.1727924,14.0249933 15.5522025,15.2045477 13.4959984,15.691213 C13.3020667,15.5618463 13.0700516,15.401678 12.8371577,15.3019395 C12.9426191,14.9912834 13.0495452,14.6826807 13.1582291,14.3761315 L14.0880469,11.8521607 C14.6513865,10.3628302 15.2126754,8.90576807 15.7103946,7.4522261 C15.8984674,6.9130515 16.0809742,6.37417024 16.2494194,5.83528899 C16.5268415,4.95025647 15.6386222,4.75136617 14.9531232,4.69768338 C14.8497125,4.68976297 14.7398569,4.68858958 14.6267788,4.69210976 C13.8375761,4.71381755 12.8793423,4.98633834 12.8793423,4.98633834 C11.5285577,8.82392383 10.1584386,11.986221 9.24414695,14.8639701 C8.48892626,15.0622737 8.13152935,15.492616 8.13152935,15.9220782 C8.13152935,16.0731527 8.17254211,16.2236405 8.2586689,16.361221 C8.32370342,16.521096 8.44469107,16.6686503 8.6274908,16.7880431 C8.02431027,18.9245005 6.7936345,22.9741769 6.7936345,23.7588843 C6.7936345,24.6524239 7.62824418,25.0830595 8.38287898,25.0830595 C8.70863748,25.0830595 9.52361962,25.0150027 9.52361962,25.0150027 C9.52361962,25.0150027 9.52977154,24.995935 9.54178242,24.9601465 C9.55291445,24.9592665 9.56082406,24.9583864 9.56082406,24.9583864 C9.56082406,24.9583864 11.1155006,20.3331601 11.9714955,17.8068426 C13.2534373,20.8224655 13.5068375,23.4617222 15.2100389,24.2980589 C15.5990742,24.5080964 16.0636902,24.622209 16.6358182,24.622209 C18.8525579,24.622209 20.7564289,22.7418449 22.2000781,20.8075047 C22.6781697,22.9744703 24.0793413,24.5418315 26.7126535,24.5418315 C30.4913935,24.5418315 33.021002,22.5080461 34.7707821,19.6898468 C34.8431404,23.0008717 36.2645255,24.5418315 38.5753016,24.5418315 C40.8315893,24.5418315 42.7761801,23.1818677 44.2541042,21.206752 C45.830166,21.1193342 47.2102454,20.6021607 48.2525554,19.6778195 C47.9839218,21.1744837 47.8318817,22.4144679 47.8318817,23.1818677 C47.8318817,23.683787 47.8553175,24.2848582 47.8553175,24.2848582 C47.8553175,24.2848582 48.5030262,24.6066615 49.3098058,24.6066615 C49.9712831,24.6066615 50.6327603,24.2508298 50.7487678,23.5382862 L51.3712829,20.1061084 C52.3822475,14.6336915 55.5721614,10.0043583 56.89453,10.0043583 C57.166679,10.0043583 57.2829794,10.1659934 57.2829794,10.3927518 C57.2829794,11.3965905 55.5721614,13.5661962 55.5721614,15.3465284 C55.5721614,17.2890824 57.0506714,17.8396976 58.6062269,17.8396976 C59.8328014,17.8396976 60.9694407,17.229826 61.8986727,16.3920226 C61.5562161,17.6780626 61.3675575,18.9570622 61.3675575,20.1055217 C61.3675575,22.6318392 62.2619286,24.5092698 64.3620749,24.5092698 C65.6065192,24.5092698 67.0844433,23.1170377 68.3678498,20.9151636 C68.3291806,21.1428021 68.3291806,21.3689738 68.3291806,21.5311955 C68.3291806,23.9592413 69.7693144,24.5092698 70.9745037,24.5092698 C72.8449785,24.5092698 74.5036517,22.4373491 75.6177341,20.6056809 C75.5102221,21.180644 75.4079831,21.74622 75.3127749,22.2965418 C75.1621995,23.1601599 75.1718668,24.1953869 75.1718668,24.1953869 C75.1718668,24.1953869 76.0302053,24.6066615 76.8472381,24.6066615 C77.5866396,24.6066615 78.2862001,24.2502431 78.4417556,23.5382862 C78.5592279,22.8260359 79.0610483,20.4754342 79.2743147,19.6599252 C79.9334483,17.1517953 83.9655886,10.0366267 85.4039647,10.0366267 C85.8313762,10.0366267 86.0258939,10.3930451 86.0258939,10.8140003 C86.0258939,12.982726 82.291975,18.8435363 82.291975,21.7573672 C82.291975,23.6996279 83.7710709,24.6066615 85.3260404,24.6066615 C87.7223575,24.6066615 89.843889,21.8805736 91.0455629,19.874363 C91.0438052,19.9556206 91.0402898,20.0377581 91.0402898,20.1175489 C91.0402898,22.6426931 91.9346609,24.5207104 94.0351002,24.5207104 C95.3568829,24.5207104 96.9136101,23.0642349 98.2353928,20.7007258 C98.1964306,20.8946292 98.1964306,21.0888259 98.1964306,21.185631 C98.1964306,23.1284783 99.0908018,24.5207104 100.646943,24.5207104 C103.45163,24.5207104 105.03443,22.1014651 106.062678,20.0365848 C106.128299,22.7729399 107.050207,24.6066615 109.59622,24.6066615 C112.154831,24.6066615 114.711976,22.2387522 116.313525,20.0095967 C116.273391,20.3924165 116.247025,20.7626224 116.247025,21.109947 C116.247025,23.1495994 117.025682,24.5092698 119.358429,24.5092698 C120.992495,24.5092698 122.314278,23.5048444 123.325828,21.7573672 C123.092348,22.890866 122.87,23.9935631 122.713566,24.9648401 C118.48017,25.9903865 114.969478,28.2655978 114.969478,31.8271423 C114.969478,33.6083546 116.752947,35 118.659455,35 C121.45506,35 124.121183,32.6658257 125.897914,26.4638511 C132.123944,24.9985752 136.909547,22.71163 137.676486,21.2205394 C138.360227,19.8910839 137.996092,17.8825265 136.239575,17.3242842 Z" id="logo"></path>
                </g>
            </g>
        </g>
    </g>
</svg>